<mxfile host="app.diagrams.net" modified="2021-12-02T18:46:07.058Z" agent="5.0 (Windows NT 10.0; Win64; x64) AppleWebKit/537.36 (KHTML, like Gecko) Chrome/96.0.4664.45 Safari/537.36" etag="CXJ8GgI1ZHNzKYl0nCAP" version="15.8.8" type="github">
  <diagram id="C5RBs43oDa-KdzZeNtuy" name="Page-1">
    <mxGraphModel dx="1021" dy="529" grid="1" gridSize="10" guides="1" tooltips="1" connect="1" arrows="1" fold="1" page="1" pageScale="1" pageWidth="827" pageHeight="1169" math="0" shadow="0">
      <root>
        <mxCell id="WIyWlLk6GJQsqaUBKTNV-0" />
        <mxCell id="WIyWlLk6GJQsqaUBKTNV-1" parent="WIyWlLk6GJQsqaUBKTNV-0" />
        <mxCell id="OwRMZqoqTo7RuuSNm70h-23" value="Kết thúc" style="ellipse;whiteSpace=wrap;html=1;rounded=1;shadow=0;strokeWidth=1;glass=0;" vertex="1" parent="WIyWlLk6GJQsqaUBKTNV-1">
          <mxGeometry x="160" y="800" width="120" height="60" as="geometry" />
        </mxCell>
        <mxCell id="OwRMZqoqTo7RuuSNm70h-27" value="Sai" style="edgeStyle=orthogonalEdgeStyle;rounded=0;html=1;jettySize=auto;orthogonalLoop=1;fontSize=11;endArrow=classic;endFill=1;endSize=8;strokeWidth=1;shadow=0;labelBackgroundColor=none;" edge="1" parent="WIyWlLk6GJQsqaUBKTNV-1" source="OwRMZqoqTo7RuuSNm70h-37" target="OwRMZqoqTo7RuuSNm70h-30">
          <mxGeometry y="10" relative="1" as="geometry">
            <mxPoint as="offset" />
            <mxPoint x="740" y="165" as="sourcePoint" />
            <Array as="points">
              <mxPoint x="840" y="165" />
            </Array>
          </mxGeometry>
        </mxCell>
        <mxCell id="OwRMZqoqTo7RuuSNm70h-28" value="" style="edgeStyle=orthogonalEdgeStyle;rounded=0;orthogonalLoop=1;jettySize=auto;html=1;endArrow=classic;endFill=1;entryX=0.5;entryY=0;entryDx=0;entryDy=0;exitX=0.5;exitY=1;exitDx=0;exitDy=0;" edge="1" parent="WIyWlLk6GJQsqaUBKTNV-1" source="OwRMZqoqTo7RuuSNm70h-37" target="OwRMZqoqTo7RuuSNm70h-35">
          <mxGeometry relative="1" as="geometry">
            <mxPoint x="650" y="240" as="sourcePoint" />
            <mxPoint x="650" y="365" as="targetPoint" />
          </mxGeometry>
        </mxCell>
        <mxCell id="OwRMZqoqTo7RuuSNm70h-29" value="" style="edgeStyle=orthogonalEdgeStyle;rounded=0;orthogonalLoop=1;jettySize=auto;html=1;endArrow=classic;endFill=1;" edge="1" parent="WIyWlLk6GJQsqaUBKTNV-1" source="OwRMZqoqTo7RuuSNm70h-30" target="OwRMZqoqTo7RuuSNm70h-33">
          <mxGeometry relative="1" as="geometry" />
        </mxCell>
        <mxCell id="OwRMZqoqTo7RuuSNm70h-30" value="Thông báo không có sự kiện đang diễn ra&amp;nbsp;" style="rounded=0;whiteSpace=wrap;html=1;" vertex="1" parent="WIyWlLk6GJQsqaUBKTNV-1">
          <mxGeometry x="770" y="200" width="150" height="55" as="geometry" />
        </mxCell>
        <mxCell id="OwRMZqoqTo7RuuSNm70h-31" value="" style="edgeStyle=orthogonalEdgeStyle;rounded=0;orthogonalLoop=1;jettySize=auto;html=1;endArrow=classic;endFill=1;" edge="1" parent="WIyWlLk6GJQsqaUBKTNV-1" source="OwRMZqoqTo7RuuSNm70h-32" target="OwRMZqoqTo7RuuSNm70h-37">
          <mxGeometry relative="1" as="geometry">
            <mxPoint x="650" y="90" as="targetPoint" />
          </mxGeometry>
        </mxCell>
        <mxCell id="OwRMZqoqTo7RuuSNm70h-32" value="Bắt đầu" style="ellipse;whiteSpace=wrap;html=1;rounded=1;shadow=0;strokeWidth=1;glass=0;" vertex="1" parent="WIyWlLk6GJQsqaUBKTNV-1">
          <mxGeometry x="590" y="10" width="120" height="60" as="geometry" />
        </mxCell>
        <mxCell id="OwRMZqoqTo7RuuSNm70h-33" value="Kết thúc" style="ellipse;whiteSpace=wrap;html=1;rounded=1;shadow=0;strokeWidth=1;glass=0;" vertex="1" parent="WIyWlLk6GJQsqaUBKTNV-1">
          <mxGeometry x="785" y="335" width="120" height="60" as="geometry" />
        </mxCell>
        <mxCell id="OwRMZqoqTo7RuuSNm70h-52" style="edgeStyle=orthogonalEdgeStyle;rounded=0;orthogonalLoop=1;jettySize=auto;html=1;exitX=0.5;exitY=1;exitDx=0;exitDy=0;entryX=0;entryY=0.5;entryDx=0;entryDy=0;" edge="1" parent="WIyWlLk6GJQsqaUBKTNV-1" source="OwRMZqoqTo7RuuSNm70h-35" target="OwRMZqoqTo7RuuSNm70h-33">
          <mxGeometry relative="1" as="geometry" />
        </mxCell>
        <mxCell id="OwRMZqoqTo7RuuSNm70h-35" value="Thực hiện các chương trình" style="rounded=0;whiteSpace=wrap;html=1;" vertex="1" parent="WIyWlLk6GJQsqaUBKTNV-1">
          <mxGeometry x="575" y="280" width="150" height="55" as="geometry" />
        </mxCell>
        <mxCell id="OwRMZqoqTo7RuuSNm70h-36" value="Đúng" style="text;html=1;align=center;verticalAlign=middle;resizable=0;points=[];autosize=1;strokeColor=none;fillColor=none;" vertex="1" parent="WIyWlLk6GJQsqaUBKTNV-1">
          <mxGeometry x="650" y="240" width="40" height="20" as="geometry" />
        </mxCell>
        <mxCell id="OwRMZqoqTo7RuuSNm70h-37" value="Kiểm tra thời gian sự kiện" style="rhombus;whiteSpace=wrap;html=1;rounded=1;shadow=0;strokeWidth=1;glass=0;" vertex="1" parent="WIyWlLk6GJQsqaUBKTNV-1">
          <mxGeometry x="560" y="100" width="180" height="130" as="geometry" />
        </mxCell>
        <mxCell id="OwRMZqoqTo7RuuSNm70h-53" value="Sai" style="edgeStyle=orthogonalEdgeStyle;rounded=0;html=1;jettySize=auto;orthogonalLoop=1;fontSize=11;endArrow=classic;endFill=1;endSize=8;strokeWidth=1;shadow=0;labelBackgroundColor=none;" edge="1" parent="WIyWlLk6GJQsqaUBKTNV-1" source="OwRMZqoqTo7RuuSNm70h-63" target="OwRMZqoqTo7RuuSNm70h-56">
          <mxGeometry y="10" relative="1" as="geometry">
            <mxPoint as="offset" />
            <mxPoint x="1130" y="155" as="sourcePoint" />
            <Array as="points">
              <mxPoint x="1230" y="155" />
            </Array>
          </mxGeometry>
        </mxCell>
        <mxCell id="OwRMZqoqTo7RuuSNm70h-54" value="" style="edgeStyle=orthogonalEdgeStyle;rounded=0;orthogonalLoop=1;jettySize=auto;html=1;endArrow=classic;endFill=1;entryX=0.5;entryY=0;entryDx=0;entryDy=0;exitX=0.5;exitY=1;exitDx=0;exitDy=0;" edge="1" parent="WIyWlLk6GJQsqaUBKTNV-1" source="OwRMZqoqTo7RuuSNm70h-63" target="OwRMZqoqTo7RuuSNm70h-61">
          <mxGeometry relative="1" as="geometry">
            <mxPoint x="1040" y="230" as="sourcePoint" />
            <mxPoint x="1040" y="355" as="targetPoint" />
          </mxGeometry>
        </mxCell>
        <mxCell id="OwRMZqoqTo7RuuSNm70h-55" value="" style="edgeStyle=orthogonalEdgeStyle;rounded=0;orthogonalLoop=1;jettySize=auto;html=1;endArrow=classic;endFill=1;" edge="1" parent="WIyWlLk6GJQsqaUBKTNV-1" source="OwRMZqoqTo7RuuSNm70h-56" target="OwRMZqoqTo7RuuSNm70h-59">
          <mxGeometry relative="1" as="geometry" />
        </mxCell>
        <mxCell id="OwRMZqoqTo7RuuSNm70h-56" value="Thông báo không có sự kiện đang diễn ra&amp;nbsp;" style="rounded=0;whiteSpace=wrap;html=1;" vertex="1" parent="WIyWlLk6GJQsqaUBKTNV-1">
          <mxGeometry x="1160" y="190" width="150" height="55" as="geometry" />
        </mxCell>
        <mxCell id="OwRMZqoqTo7RuuSNm70h-57" value="" style="edgeStyle=orthogonalEdgeStyle;rounded=0;orthogonalLoop=1;jettySize=auto;html=1;endArrow=classic;endFill=1;" edge="1" parent="WIyWlLk6GJQsqaUBKTNV-1" source="OwRMZqoqTo7RuuSNm70h-58" target="OwRMZqoqTo7RuuSNm70h-63">
          <mxGeometry relative="1" as="geometry">
            <mxPoint x="1040" y="80" as="targetPoint" />
          </mxGeometry>
        </mxCell>
        <mxCell id="OwRMZqoqTo7RuuSNm70h-58" value="Bắt đầu" style="ellipse;whiteSpace=wrap;html=1;rounded=1;shadow=0;strokeWidth=1;glass=0;" vertex="1" parent="WIyWlLk6GJQsqaUBKTNV-1">
          <mxGeometry x="980" width="120" height="60" as="geometry" />
        </mxCell>
        <mxCell id="OwRMZqoqTo7RuuSNm70h-59" value="Kết thúc" style="ellipse;whiteSpace=wrap;html=1;rounded=1;shadow=0;strokeWidth=1;glass=0;" vertex="1" parent="WIyWlLk6GJQsqaUBKTNV-1">
          <mxGeometry x="1175" y="325" width="120" height="60" as="geometry" />
        </mxCell>
        <mxCell id="OwRMZqoqTo7RuuSNm70h-60" style="edgeStyle=orthogonalEdgeStyle;rounded=0;orthogonalLoop=1;jettySize=auto;html=1;exitX=0.5;exitY=1;exitDx=0;exitDy=0;entryX=0;entryY=0.5;entryDx=0;entryDy=0;" edge="1" parent="WIyWlLk6GJQsqaUBKTNV-1" source="OwRMZqoqTo7RuuSNm70h-61" target="OwRMZqoqTo7RuuSNm70h-59">
          <mxGeometry relative="1" as="geometry" />
        </mxCell>
        <mxCell id="OwRMZqoqTo7RuuSNm70h-61" value="Gửi mã giảm giá vào ví&amp;nbsp; mã giảm giá của người&amp;nbsp;" style="rounded=0;whiteSpace=wrap;html=1;" vertex="1" parent="WIyWlLk6GJQsqaUBKTNV-1">
          <mxGeometry x="965" y="270" width="150" height="55" as="geometry" />
        </mxCell>
        <mxCell id="OwRMZqoqTo7RuuSNm70h-62" value="Đúng" style="text;html=1;align=center;verticalAlign=middle;resizable=0;points=[];autosize=1;strokeColor=none;fillColor=none;" vertex="1" parent="WIyWlLk6GJQsqaUBKTNV-1">
          <mxGeometry x="1040" y="230" width="40" height="20" as="geometry" />
        </mxCell>
        <mxCell id="OwRMZqoqTo7RuuSNm70h-63" value="Kiểm tra ngày sinh của&lt;br&gt;&amp;nbsp;người dùng" style="rhombus;whiteSpace=wrap;html=1;rounded=1;shadow=0;strokeWidth=1;glass=0;" vertex="1" parent="WIyWlLk6GJQsqaUBKTNV-1">
          <mxGeometry x="950" y="90" width="180" height="130" as="geometry" />
        </mxCell>
      </root>
    </mxGraphModel>
  </diagram>
</mxfile>
